<?xml version="1.0" encoding="utf-8"?>
<!-- Generator: Adobe Illustrator 15.0.0, SVG Export Plug-In . SVG Version: 6.00 Build 0)  -->
<!DOCTYPE svg PUBLIC "-//W3C//DTD SVG 1.1//EN" "http://www.w3.org/Graphics/SVG/1.1/DTD/svg11.dtd">
<svg version="1.1" xmlns="http://www.w3.org/2000/svg" xmlns:xlink="http://www.w3.org/1999/xlink" x="0px" y="0px" width="180px"
	 height="180px" viewBox="0 0 180 180" enable-background="new 0 0 180 180" xml:space="preserve">
<g id="レイヤー_2">
	<rect x="-0.1" fill-rule="evenodd" clip-rule="evenodd" fill="#FFFFFF" width="180" height="180"/>
</g>
<g id="レイヤー_1">
	<path fill-rule="evenodd" clip-rule="evenodd" fill="#2B3B48" d="M174,122.1h-16.1l-7.95-15.699L141.9,122.1H123L158.3,53H174
		V122.1z M158.1,104.75v-14.5l-7.3,14.5H158.1z"/>
	<path fill-rule="evenodd" clip-rule="evenodd" fill="#485B6B" d="M131.8,92.45l-6.45,12.8v-15L109.15,122.1H73V90.25L56.8,122.1
		H37.95L73.1,53h36v32.3L125.5,53H152v0.1h-0.4l-2.85,5.55H129.1L111.75,92.8l-8.85-0.05v-34.1H76.95l-29.9,58.65h6.15l17.85-35.1h8
		v35.1h26.5l17.75-34.9h8.5V92.45z M39.1,53h27.5l-27.65,54.85v-17.6L22.8,122.1H4L39.1,53z"/>
	<polygon fill-rule="evenodd" clip-rule="evenodd" fill="#FFFFFF" points="148.75,58.65 148.8,58.7 131.8,92.45 131.8,82.4 
		123.3,82.4 105.55,117.3 79.05,117.3 79.05,82.2 71.05,82.2 53.2,117.3 47.05,117.3 76.95,58.65 102.9,58.65 102.9,92.75 
		111.75,92.8 129.1,58.65 	"/>
</g>
</svg>
